<svg width="90" height="76" viewBox="0 0 90 76" fill="none" xmlns="http://www.w3.org/2000/svg">
<g clip-path="url(#clip0_80_2)">
<g opacity="0.22">
<path d="M45.963 75.4741C25.534 75.4741 8.973 73.0725 8.973 70.1101C8.973 67.1476 25.534 64.7461 45.963 64.7461C66.392 64.7461 82.953 67.1476 82.953 70.1101C82.953 73.0725 66.392 75.4741 45.963 75.4741Z" fill="#B7B7B7" style="fill:#B7B7B7;fill:color(display-p3 0.7176 0.7176 0.7176);fill-opacity:1;"/>
</g>
<path opacity="0.3" d="M52.371 72.1171C53.514 72.0991 54.612 72.1081 56.016 72.2971C57.42 72.4861 59.391 73.0441 64.089 72.1711C68.796 71.2981 70.173 70.7401 70.272 69.9571C70.371 69.1741 67.239 69.0481 65.061 69.0571C62.883 69.0661 58.473 69.0571 56.673 69.1291C54.873 69.2011 52.245 69.0211 50.544 69.0571C48.843 69.0931 39.42 69.3091 37.26 69.2731C35.1 69.2371 25.875 69.6691 24.084 69.4171C22.293 69.1651 20.115 68.9851 19.629 69.8581C19.152 70.7311 22.14 71.5051 24.633 72.0271C27.558 72.6391 28.557 72.6031 35.208 72.4861C41.859 72.3691 48.51 72.1891 52.371 72.1171Z" fill="#767576" style="fill:#767576;fill:color(display-p3 0.4627 0.4588 0.4627);fill-opacity:1;"/>
<path d="M15.867 23.3101C15.264 25.1191 14.769 27.0361 14.391 29.0521C13.617 28.9531 12.969 28.7911 12.438 28.5931C12.312 28.5391 12.186 28.4851 12.069 28.4311C12.609 26.9821 13.158 25.6321 13.716 24.3901C14.571 23.9221 15.327 23.5621 15.867 23.3191V23.3101Z" fill="#97ACCD" style="fill:#97ACCD;fill:color(display-p3 0.5922 0.6745 0.8039);fill-opacity:1;"/>
<path d="M17.091 17.9099C16.515 18.8459 15.921 19.8899 15.327 21.0329C14.112 21.9239 11.556 23.8589 9.918 25.4699C9.9 25.2809 9.88201 25.0829 9.88201 24.8759C9.88201 23.9129 10.125 22.7699 10.593 21.5729C12.51 20.1149 14.967 18.8009 17.091 17.9099Z" fill="#71C9C2" style="fill:#71C9C2;fill:color(display-p3 0.4431 0.7882 0.7608);fill-opacity:1;"/>
<path d="M12.06 28.4221C11.484 28.1521 11.061 27.8281 10.746 27.4771C10.539 27.2431 10.377 26.9821 10.242 26.7031C11.367 25.7671 12.609 24.9841 13.707 24.3811C13.149 25.6321 12.6 26.9731 12.06 28.4221Z" fill="#B7CCE3" style="fill:#B7CCE3;fill:color(display-p3 0.7176 0.8000 0.8902);fill-opacity:1;"/>
<path d="M23.823 9.80097C21.708 11.034 15.282 15.111 10.584 21.573C10.656 21.384 10.737 21.195 10.818 21.006C11.43 19.602 12.33 18.144 13.419 16.776C14.904 14.904 16.92 13.104 19.134 11.565C21.303 10.053 23.652 8.77497 25.848 7.86597C25.155 8.47797 24.471 9.12597 23.823 9.80997V9.80097Z" fill="white" style="fill:white;fill-opacity:1;"/>
<path d="M11.313 50.445C11.313 50.445 11.358 50.427 11.385 50.418C11.61 50.355 11.853 50.283 12.123 50.22C13.743 51.183 16.02 51.354 17.649 51.165C17.829 51.606 18.045 52.083 18.306 52.569C15.768 52.704 13.023 52.101 11.322 50.445H11.313Z" fill="#58AEBA" style="fill:#58AEBA;fill:color(display-p3 0.3451 0.6824 0.7294);fill-opacity:1;"/>
<path d="M12.123 50.229C12.411 50.157 12.717 50.094 13.05 50.031C13.905 49.869 14.913 49.725 16.056 49.59C16.398 49.581 16.731 49.563 17.046 49.554C17.109 49.752 17.181 49.968 17.262 50.202C17.37 50.499 17.496 50.823 17.631 51.174C16.011 51.372 13.725 51.192 12.105 50.229H12.123Z" fill="#3E889A" style="fill:#3E889A;fill:color(display-p3 0.2431 0.5333 0.6039);fill-opacity:1;"/>
<path d="M15.327 21.024C15.75 20.709 16.011 20.529 16.011 20.529C16.011 20.529 15.75 20.718 15.327 21.024C15.921 19.881 16.515 18.846 17.091 17.901C17.532 17.712 17.964 17.55 18.369 17.397C17.406 19.224 16.56 21.186 15.867 23.301C15.327 23.544 14.571 23.904 13.716 24.372C14.256 23.166 14.796 22.05 15.327 21.024Z" fill="url(#paint0_linear_80_2)" style=""/>
<path d="M81.036 37.8719C81.756 38.6189 82.305 39.6899 81.657 39.9059C81.189 40.0589 80.721 39.9419 80.136 39.4379C79.839 39.1859 79.47 38.8529 79.182 38.5919C79.191 38.2049 79.2 37.8179 79.2 37.4219C79.2 37.2509 79.2 37.0709 79.2 36.8999C79.632 37.0709 80.244 37.3589 81.018 37.8539C81.018 37.8539 81.027 37.8539 81.036 37.8629V37.8719Z" fill="white" style="fill:white;fill-opacity:1;"/>
<path d="M86.823 40.8781C86.058 38.2051 81.396 34.8571 79.056 33.4711C79.02 32.9491 78.975 32.4361 78.921 31.9231C79.146 32.0401 79.38 32.1751 79.632 32.3101C81.216 33.2011 83.205 34.4971 84.771 36.0271C85.815 37.0441 86.652 38.1511 87.102 39.2671C87.363 39.9061 87.498 40.5361 87.498 41.1751C87.498 41.2651 87.498 41.3551 87.498 41.4451C87.453 42.0931 87.3 42.6061 87.057 43.0561C86.958 43.2271 86.841 43.3981 86.724 43.5511C87.381 42.4531 87.318 41.6431 86.841 40.8781H86.823Z" fill="white" style="fill:white;fill-opacity:1;"/>
<path d="M82.926 38.3759C82.512 38.7809 81.963 38.4659 81.036 37.8719C80.793 37.6199 80.532 37.4039 80.289 37.2779C80.532 37.4129 80.793 37.6289 81.036 37.8719C81.036 37.8719 81.027 37.8719 81.018 37.8629C80.235 37.3679 79.623 37.0709 79.2 36.9089C79.2 36.1889 79.173 35.4779 79.137 34.7759C81.162 35.8559 83.826 37.5119 82.926 38.3849V38.3759Z" fill="#69C7C5" style="fill:#69C7C5;fill:color(display-p3 0.4118 0.7804 0.7725);fill-opacity:1;"/>
<path d="M22.878 10.8359C21.267 12.6719 19.818 14.7329 18.567 17.0369C18.504 17.1629 18.432 17.2799 18.369 17.4059C17.964 17.5499 17.532 17.7209 17.091 17.9099C19.368 14.2289 21.456 12.0509 22.878 10.8359Z" fill="#ACBBDC" style="fill:#ACBBDC;fill:color(display-p3 0.6745 0.7333 0.8627);fill-opacity:1;"/>
<path d="M10.521 50.7331C10.728 50.6431 10.998 50.5441 11.313 50.4451C13.014 52.1011 15.759 52.7041 18.297 52.5691C18.495 52.9381 18.702 53.3161 18.945 53.6941C19.143 54.0091 19.368 54.3331 19.602 54.6391C19.323 54.6661 19.017 54.6841 18.684 54.6841C17.613 54.6841 16.308 54.5041 15.021 54.1261C13.725 53.7481 12.447 53.1631 11.403 52.3981C11.007 52.1101 10.683 51.8401 10.458 51.6151C10.224 51.3901 10.08 51.2011 10.008 51.0841C10.008 51.0661 9.98999 51.0571 9.98999 51.0481C10.026 51.0211 10.062 50.9851 10.134 50.9401C10.233 50.8771 10.368 50.8051 10.539 50.7241L10.521 50.7331Z" fill="#A4BAD9" style="fill:#A4BAD9;fill:color(display-p3 0.6431 0.7294 0.8510);fill-opacity:1;"/>
<path d="M86.823 40.878C86.643 40.59 86.409 40.302 86.121 40.014C86.4 40.311 86.643 40.59 86.823 40.878C86.931 41.256 86.958 41.616 86.895 41.949C86.517 44.01 82.782 43.785 80.28 43.002C81.351 43.218 83.322 43.533 83.673 42.975C84.006 42.453 83.538 41.976 82.368 41.742C81.396 41.553 80.028 41.238 79.047 40.77C79.119 40.068 79.164 39.339 79.191 38.601C79.479 38.862 79.848 39.186 80.145 39.447C80.73 39.951 81.198 40.068 81.666 39.915C82.314 39.699 81.765 38.628 81.045 37.881C81.972 38.475 82.521 38.79 82.935 38.385C83.835 37.512 81.171 35.865 79.146 34.776C79.128 34.344 79.101 33.912 79.065 33.48C81.405 34.857 86.067 38.214 86.832 40.887L86.823 40.878Z" fill="#DFF1FA" style="fill:#DFF1FA;fill:color(display-p3 0.8745 0.9451 0.9804);fill-opacity:1;"/>
<path d="M17.091 17.91C14.967 18.801 12.51 20.106 10.593 21.573C15.291 15.111 21.717 11.034 23.832 9.80103C23.508 10.143 23.193 10.485 22.878 10.836C21.456 12.051 19.368 14.22 17.091 17.91Z" fill="#D9EDF4" style="fill:#D9EDF4;fill:color(display-p3 0.8510 0.9294 0.9569);fill-opacity:1;"/>
<path d="M82.368 41.742C83.538 41.976 84.006 42.453 83.673 42.975C83.322 43.533 81.351 43.227 80.28 43.002C79.722 42.831 79.227 42.624 78.84 42.417C78.921 41.877 78.984 41.328 79.038 40.761C80.019 41.229 81.387 41.544 82.359 41.733L82.368 41.742Z" fill="#69C7C5" style="fill:#69C7C5;fill:color(display-p3 0.4118 0.7804 0.7725);fill-opacity:1;"/>
<path d="M79.587 42.858C79.587 42.858 79.866 42.93 80.28 43.011C82.773 43.794 86.517 44.01 86.895 41.958C86.958 41.616 86.922 41.256 86.823 40.887C87.3 41.652 87.363 42.462 86.706 43.56C86.517 43.803 86.292 44.028 86.031 44.226C85.743 44.451 85.419 44.658 85.059 44.838C84.582 45.081 84.042 45.288 83.475 45.45C82.719 45.675 81.918 45.828 81.135 45.927C80.091 46.062 79.092 46.098 78.291 46.098C78.228 46.098 78.165 46.098 78.102 46.098C78.408 44.946 78.66 43.713 78.849 42.417C79.236 42.624 79.731 42.831 80.289 43.002C79.875 42.921 79.596 42.849 79.596 42.849L79.587 42.858Z" fill="#A4BAD9" style="fill:#A4BAD9;fill:color(display-p3 0.6431 0.7294 0.8510);fill-opacity:1;"/>
<path d="M13.707 24.381C12.609 24.984 11.367 25.767 10.242 26.703C10.215 26.64 10.188 26.577 10.161 26.514C10.035 26.199 9.954 25.848 9.909 25.47C11.547 23.85 14.103 21.924 15.318 21.033C14.778 22.059 14.247 23.175 13.707 24.381Z" fill="#49B9B5" style="fill:#49B9B5;fill:color(display-p3 0.2863 0.7255 0.7098);fill-opacity:1;"/>
<path d="M3.906 39.033C4.293 38.574 4.761 38.106 5.274 37.647C2.259 42.426 4.545 44.136 10.881 45.054C16.344 45.846 21.348 43.695 22.932 42.912C23.22 42.768 23.571 42.885 23.715 43.173C29.007 54 34.803 57.834 46.575 58.941C57.33 59.949 63.999 57.717 67.662 55.719C70.191 54.333 71.28 53.073 71.28 53.073C68.553 58.023 63.261 61.542 63.261 61.542C63.009 61.686 62.784 61.803 62.586 61.911C61.335 62.559 58.302 64.557 60.246 66.951C60.876 67.725 61.497 68.094 62.1 68.184C63.567 68.382 65.061 67.617 65.889 67.086C65.565 67.509 65.214 67.896 64.836 68.22C64.422 68.571 63.981 68.859 63.504 69.066C62.955 69.3 62.361 69.444 61.668 69.471C61.578 69.471 61.488 69.471 61.407 69.471C60.282 69.471 59.301 69.264 58.419 68.931C57.537 68.598 56.763 68.13 56.079 67.608C54.918 66.708 54.045 65.619 53.478 64.764C59.121 63.216 59.85 60.75 59.85 60.75C55.989 62.127 50.202 62.631 50.121 62.64C48.969 62.685 47.979 62.703 47.151 62.703C45.567 62.703 44.532 62.631 43.893 62.55C43.299 62.478 43.047 62.397 43.002 62.388C42.516 62.145 41.913 62.253 41.535 62.658C40.329 63.954 38.844 65.286 37.242 66.429C35.64 67.572 33.921 68.526 32.265 69.093C31.158 69.471 30.087 69.678 29.106 69.678C28.188 69.678 27.351 69.507 26.568 69.138C26.199 68.958 25.848 68.697 25.524 68.337C25.2 67.977 24.903 67.527 24.633 66.996C24.102 65.943 23.706 64.584 23.454 63.18C23.283 62.244 23.166 61.29 23.094 60.372C22.995 59.157 22.968 58.032 22.968 57.141C22.968 56.016 23.013 55.278 23.013 55.251V55.233C23.013 55.197 23.013 55.161 23.013 55.125C23.013 55.107 23.013 55.098 23.013 55.08C23.013 55.044 23.013 55.017 23.004 54.981C23.004 54.972 23.004 54.954 23.004 54.945C23.004 54.909 22.986 54.873 22.977 54.846C22.977 54.846 22.977 54.828 22.977 54.819C22.968 54.774 22.95 54.738 22.932 54.702C22.878 54.576 22.806 54.459 22.716 54.351C22.707 54.342 22.698 54.333 22.689 54.315C22.671 54.297 22.662 54.279 22.644 54.27C22.644 54.27 22.635 54.261 22.626 54.252C22.626 54.252 22.626 54.243 22.608 54.234C22.032 53.721 21.519 53.082 21.087 52.407C20.655 51.732 20.304 51.021 20.025 50.364C20.025 50.364 20.025 50.346 20.016 50.337C22.869 48.24 22.527 45.648 22.527 45.648C20.529 46.629 16.227 47.088 16.191 47.088C15.597 47.106 14.976 47.124 14.328 47.124C12.843 47.124 11.259 47.052 9.747 46.854C8.235 46.647 6.81299 46.305 5.66099 45.783C4.89599 45.441 4.257 45.018 3.771 44.541C3.492 44.262 3.26699 43.965 3.08699 43.641C2.87999 43.263 2.727 42.849 2.646 42.354C2.619 42.21 2.60999 42.066 2.60999 41.922C2.60999 41.499 2.70899 41.049 2.93399 40.563C3.14999 40.077 3.492 39.564 3.924 39.051L3.906 39.033ZM29.025 67.59C30.015 68.202 32.868 68.22 39.303 62.532C39.303 62.532 33.939 62.244 29.259 58.194C29.259 58.194 28.413 60.858 28.035 63.324C27.657 65.79 28.035 66.987 29.025 67.599V67.59Z" fill="#A2BBD9" style="fill:#A2BBD9;fill:color(display-p3 0.6353 0.7333 0.8510);fill-opacity:1;"/>
<path d="M62.1 68.175C63.387 68.355 64.53 67.203 65.268 65.808C66.348 63.756 67.374 59.094 67.374 59.094C66.582 59.562 64.602 60.786 63.252 61.551C63.252 61.551 68.553 58.041 71.271 53.082C71.271 53.082 70.182 54.351 67.653 55.728C72.306 51.795 75.726 46.026 75.393 36.99C75.006 26.622 71.802 20.925 71.802 20.925C72.234 34.038 58.761 37.278 52.191 37.278C45.621 37.278 29.997 36.288 29.466 22.32C28.935 8.35198 47.682 3.16799 47.682 3.16799C47.682 3.16799 37.17 2.14199 26.118 11.034C26.658 10.494 27.216 9.98099 27.792 9.48599C33.237 4.83299 40.014 2.51099 46.872 2.51099C47.106 2.51099 47.331 2.51099 47.565 2.51099C53.181 2.63699 58.671 4.42799 63.342 7.78499C68.013 11.142 71.874 16.056 74.223 22.5C75.789 26.793 76.689 31.779 76.689 37.422C76.689 40.608 76.23 43.434 75.546 45.891C74.862 48.339 73.944 50.418 73.026 52.11C71.199 55.467 69.345 57.258 69.309 57.285C69.093 57.492 68.949 57.771 68.922 58.077C68.868 58.626 68.715 59.859 68.364 61.29C68.022 62.73 67.473 64.386 66.69 65.799C66.438 66.249 66.168 66.672 65.871 67.059C65.043 67.59 63.549 68.364 62.082 68.157L62.1 68.175Z" fill="white" style="fill:white;fill-opacity:1;"/>
<path d="M20.007 50.3279C19.458 49.0409 19.215 47.9969 19.215 47.9789C19.17 47.7809 19.08 47.6099 18.963 47.4569C21.546 46.6649 22.518 45.6389 22.518 45.6389C22.518 45.6389 22.86 48.2309 20.007 50.3279Z" fill="#8EA3C9" style="fill:#8EA3C9;fill:color(display-p3 0.5569 0.6392 0.7882);fill-opacity:1;"/>
<path d="M15.48 33.8129C12.114 35.3069 10.107 36.3059 8.83798 36.8189C7.75798 37.2509 6.71398 36.9449 8.13598 35.5229C8.83798 35.0729 9.55798 34.6409 10.26 34.2449C11.52 33.5429 12.726 32.9489 13.698 32.4989C14.193 32.2739 14.616 32.0849 14.958 31.9319C14.976 31.9319 16.686 31.3109 18.18 31.6889C18.306 31.7429 18.432 31.7969 18.558 31.8509C18.351 32.2649 17.505 32.9039 15.471 33.8039L15.48 33.8129Z" fill="white" style="fill:white;fill-opacity:1;"/>
<path d="M53.478 64.755C53.379 64.611 53.289 64.467 53.208 64.332C52.839 63.738 52.659 63.324 52.659 63.315C58.392 62.676 59.85 60.741 59.85 60.741C59.85 60.741 59.121 63.207 53.478 64.755Z" fill="#93A5C7" style="fill:#93A5C7;fill:color(display-p3 0.5765 0.6471 0.7804);fill-opacity:1;"/>
<path d="M47.691 3.16789C47.691 3.16789 36.027 3.50989 27.846 14.2109C20.844 23.3639 22.824 35.2079 22.824 35.2079C22.824 35.2079 20.7 32.8769 18.567 31.8599C18.702 31.5899 18.567 31.4099 18.288 31.3289C18.558 31.4189 18.702 31.5899 18.567 31.8599C18.441 31.7969 18.315 31.7429 18.189 31.6979C18.189 31.6979 17.415 31.2569 16.362 31.2209C16.362 31.2209 16.371 31.2119 16.38 31.2029C16.389 31.1939 16.398 31.1759 16.416 31.1669C16.434 31.1399 16.461 31.1129 16.479 31.0769C16.479 31.0679 16.488 31.0589 16.497 31.0499C16.524 31.0049 16.542 30.9689 16.569 30.9239C16.569 30.9239 16.569 30.9059 16.578 30.8969C16.596 30.8609 16.605 30.8249 16.623 30.7799C16.623 30.7709 16.623 30.7529 16.632 30.7439C16.641 30.7079 16.65 30.6629 16.659 30.6269C16.659 30.6269 16.659 30.6089 16.659 30.5999C17.433 25.8659 18.855 21.7529 20.763 18.2429C22.275 15.4709 24.084 13.0679 26.118 11.0429C37.188 2.13289 47.691 3.16789 47.691 3.16789Z" fill="#AEC4DF" style="fill:#AEC4DF;fill:color(display-p3 0.6824 0.7686 0.8745);fill-opacity:1;"/>
<path d="M17.991 38.025C18.144 38.682 17.334 39.015 15.183 39.573C13.032 40.131 11.043 40.806 10.683 39.933C10.485 39.447 10.881 39.024 11.574 38.664C13.176 38.187 15.309 37.638 16.65 37.323C17.415 37.35 17.874 37.557 17.991 38.034V38.025Z" fill="white" style="fill:white;fill-opacity:1;"/>
<path opacity="0.99" d="M8.838 36.819C10.107 36.306 12.114 35.307 15.48 33.813C17.514 32.913 18.369 32.274 18.567 31.86C20.7 32.877 22.824 35.208 22.824 35.208C22.824 35.208 20.844 23.364 27.846 14.211C36.036 3.50997 47.691 3.16797 47.691 3.16797C47.691 3.16797 28.944 8.34297 29.475 22.32C30.006 36.288 45.63 37.278 52.2 37.278C58.77 37.278 72.243 34.047 71.811 20.925C71.811 20.925 75.024 26.622 75.402 36.99C75.735 46.026 72.324 51.795 67.662 55.728C63.999 57.726 57.33 59.967 46.575 58.95C34.803 57.843 29.007 54.009 23.715 43.182C23.571 42.894 23.22 42.777 22.932 42.921C21.339 43.704 16.335 45.855 10.881 45.063C4.55399 44.145 2.268 42.435 5.274 37.656C5.922 37.089 6.651 36.531 7.416 36.009C7.65 35.847 7.893 35.694 8.127 35.532C6.705 36.954 7.749 37.26 8.829 36.828L8.838 36.819ZM7.857 43.245C7.965 43.857 8.136 44.055 9.621 44.046C11.106 44.028 14.679 44.001 16.929 43.704C19.179 43.407 19.602 43.326 19.602 42.669C19.602 41.967 19.089 41.715 17.523 41.931C15.957 42.147 11.934 42.417 10.107 42.435C8.28 42.453 7.749 42.642 7.857 43.245ZM7.353 39.114C7.695 39.645 8.43299 39.771 9.98099 39.177C10.368 39.033 10.926 38.844 11.574 38.655C10.872 39.024 10.476 39.438 10.683 39.924C11.043 40.797 13.023 40.131 15.183 39.564C17.334 39.006 18.153 38.673 17.991 38.016C17.874 37.539 17.415 37.332 16.65 37.305C16.938 37.242 17.19 37.179 17.397 37.143C18.909 36.828 19.818 36.531 19.161 35.568C18.738 34.947 17.604 35.055 15.885 35.397C14.049 35.757 10.386 36.774 8.937 37.422C7.488 38.07 7.02 38.583 7.362 39.114H7.353Z" fill="url(#paint1_linear_80_2)" style=""/>
<path d="M65.268 65.7989C64.53 67.1939 63.387 68.3459 62.1 68.1659C61.506 68.0849 60.876 67.7069 60.246 66.9329C58.302 64.5479 61.344 62.5409 62.586 61.8929C62.784 61.7939 63.009 61.6679 63.261 61.5239C64.611 60.7679 66.591 59.5349 67.383 59.0669C67.383 59.0669 66.348 63.7379 65.277 65.7809L65.268 65.7989ZM64.773 62.1359C64.341 62.0909 63.837 62.0189 63.504 63.2429C63.171 64.4669 62.64 65.6189 62.316 66.2849C61.992 66.9509 62.028 67.4549 62.577 67.7519C63.126 68.0489 63.918 67.6529 64.368 66.6089C64.818 65.5649 65.358 64.0349 65.43 63.1979C65.502 62.3609 65.016 62.1539 64.764 62.1359H64.773Z" fill="#D7E8F2" style="fill:#D7E8F2;fill:color(display-p3 0.8431 0.9098 0.9490);fill-opacity:1;"/>
<path d="M65.439 63.1979C65.367 64.0349 64.827 65.5649 64.377 66.6089C63.927 67.6529 63.135 68.0399 62.586 67.7519C62.037 67.4549 61.992 66.9509 62.325 66.2849C62.649 65.6189 63.18 64.4669 63.513 63.2429C63.846 62.0189 64.35 62.0909 64.782 62.1359C65.034 62.1629 65.52 62.3699 65.448 63.1979H65.439Z" fill="#69C7C5" style="fill:#69C7C5;fill:color(display-p3 0.4118 0.7804 0.7725);fill-opacity:1;"/>
<path d="M29.259 58.185C33.939 62.235 39.303 62.523 39.303 62.523C32.859 68.211 30.006 68.193 29.025 67.581C28.035 66.969 27.657 65.772 28.035 63.306C28.413 60.84 29.259 58.176 29.259 58.176V58.185ZM29.277 67.185C29.952 67.626 30.375 67.401 30.897 66.717C31.419 66.033 32.706 63.711 33.03 63.018C33.354 62.325 33.282 61.839 32.724 61.479C32.211 61.137 31.392 61.344 30.852 62.37C30.312 63.396 29.421 64.854 29.097 65.484C28.773 66.114 28.602 66.744 29.268 67.176L29.277 67.185Z" fill="#D7E8F2" style="fill:#D7E8F2;fill:color(display-p3 0.8431 0.9098 0.9490);fill-opacity:1;"/>
<path d="M30.852 62.3701C31.392 61.3441 32.211 61.1371 32.724 61.4791C33.282 61.8481 33.354 62.3251 33.03 63.0181C32.706 63.7111 31.419 66.0241 30.897 66.7171C30.375 67.4011 29.943 67.6261 29.277 67.1851C28.602 66.7441 28.782 66.1141 29.106 65.4931C29.43 64.8631 30.321 63.4051 30.861 62.3791L30.852 62.3701Z" fill="#69C7C5" style="fill:#69C7C5;fill:color(display-p3 0.4118 0.7804 0.7725);fill-opacity:1;"/>
<path d="M8.92798 37.4221C10.377 36.7741 14.04 35.7571 15.876 35.3971C17.595 35.0641 18.729 34.947 19.152 35.568C19.809 36.54 18.9 36.837 17.388 37.143C17.19 37.188 16.929 37.242 16.641 37.305C16.353 37.296 16.029 37.3051 15.669 37.3411C16.038 37.3051 16.362 37.296 16.641 37.305C15.3 37.62 13.167 38.169 11.565 38.646C12.114 38.358 12.852 38.097 13.635 37.854C12.852 38.097 12.114 38.349 11.565 38.646C10.917 38.844 10.35 39.024 9.97199 39.168C8.42399 39.762 7.69499 39.636 7.34399 39.105C7.00199 38.574 7.46999 38.061 8.91899 37.413L8.92798 37.4221Z" fill="#79CAC1" style="fill:#79CAC1;fill:color(display-p3 0.4745 0.7922 0.7569);fill-opacity:1;"/>
<path d="M10.107 42.4261C11.934 42.4081 15.966 42.1471 17.523 41.9221C19.089 41.7061 19.602 41.9491 19.602 42.6601C19.602 43.3171 19.179 43.3981 16.929 43.6951C14.679 43.9921 11.106 44.0191 9.62099 44.0371C8.13599 44.0551 7.96499 43.8481 7.85699 43.2361C7.74899 42.6241 8.27999 42.4351 10.107 42.4261Z" fill="#5DC4C0" style="fill:#5DC4C0;fill:color(display-p3 0.3647 0.7686 0.7529);fill-opacity:1;"/>
<path d="M48.645 21.4739C49.059 22.6349 49.995 23.3189 51.219 23.2649C52.308 23.2379 53.46 22.6169 53.757 21.5279C54.153 20.0789 56.259 20.5019 56.052 21.9959C55.872 23.1029 55.17 24.1199 54.279 24.7589C52.065 26.3879 48.609 26.0279 47.088 23.6519C46.791 23.1929 46.575 22.7069 46.44 22.2119C46.08 20.7719 48.078 20.0969 48.654 21.4739H48.645Z" fill="#484D67" style="fill:#484D67;fill:color(display-p3 0.2824 0.3020 0.4039);fill-opacity:1;"/>
<path d="M61.47 22.887C59.4321 22.887 57.78 21.1866 57.78 19.089C57.78 16.9914 59.4321 15.291 61.47 15.291C63.5079 15.291 65.16 16.9914 65.16 19.089C65.16 21.1866 63.5079 22.887 61.47 22.887Z" fill="#484D67" style="fill:#484D67;fill:color(display-p3 0.2824 0.3020 0.4039);fill-opacity:1;"/>
<path d="M62.073 18.423C62.235 18.972 62.775 19.287 63.279 19.143C63.783 18.999 64.071 18.432 63.909 17.892C63.747 17.343 63.207 17.028 62.703 17.172C62.19 17.316 61.911 17.883 62.073 18.423Z" fill="white" style="fill:white;fill-opacity:1;"/>
<path d="M40.599 22.887C38.5611 22.887 36.909 21.1866 36.909 19.089C36.909 16.9914 38.5611 15.291 40.599 15.291C42.6369 15.291 44.289 16.9914 44.289 19.089C44.289 21.1866 42.6369 22.887 40.599 22.887Z" fill="#484D67" style="fill:#484D67;fill:color(display-p3 0.2824 0.3020 0.4039);fill-opacity:1;"/>
<path d="M41.202 18.423C41.364 18.972 41.904 19.287 42.408 19.143C42.912 18.999 43.2 18.432 43.038 17.892C42.876 17.343 42.336 17.028 41.832 17.172C41.328 17.316 41.04 17.883 41.202 18.423Z" fill="white" style="fill:white;fill-opacity:1;"/>
<path d="M0.296998 40.446C0.539998 39.564 0.980996 38.754 1.539 37.998C2.025 37.341 2.592 36.72 3.222 36.126C4.32 35.1 5.59799 34.164 6.903 33.336C8.442 32.355 10.008 31.509 11.349 30.852C10.818 30.636 10.332 30.366 9.9 30.06C9.036 29.448 8.379 28.638 7.965 27.747C7.551 26.847 7.371 25.875 7.371 24.876C7.371 23.283 7.812 21.636 8.523 19.998C9.243 18.36 10.251 16.74 11.448 15.219C12.735 13.599 14.31 12.096 16.029 10.737C18.621 8.703 21.537 6.993 24.327 5.778C25.722 5.175 27.09 4.689 28.368 4.356C29.529 4.05 30.609 3.87 31.617 3.834C36.36 1.278 41.598 0 46.881 0C47.124 0 47.376 0 47.628 0C55.782 0.18 63.702 3.591 69.561 9.954C72.495 13.131 74.907 17.046 76.581 21.636C77.409 23.895 78.048 26.325 78.498 28.908C78.813 29.052 79.236 29.259 79.722 29.511C80.55 29.943 81.585 30.519 82.674 31.221C84.312 32.283 86.085 33.633 87.498 35.28C88.2 36.099 88.821 36.999 89.271 37.98C89.721 38.979 90 40.05 90 41.184C90 41.328 90 41.472 89.991 41.607C89.946 42.39 89.766 43.119 89.487 43.767C89.244 44.334 88.911 44.847 88.533 45.297C87.858 46.08 87.03 46.665 86.148 47.106C84.816 47.772 83.358 48.132 81.981 48.348C80.604 48.555 79.299 48.618 78.291 48.618C77.931 48.618 77.607 48.618 77.337 48.6C76.257 51.687 74.871 54.126 73.683 55.863C72.693 57.312 71.838 58.284 71.388 58.761C71.316 59.373 71.181 60.255 70.956 61.281C70.74 62.271 70.443 63.387 70.02 64.53C69.705 65.385 69.327 66.258 68.859 67.086C68.157 68.337 67.266 69.507 66.087 70.407C65.502 70.857 64.836 71.235 64.107 71.505C63.378 71.775 62.586 71.928 61.74 71.955C61.632 71.955 61.515 71.955 61.407 71.955C59.472 71.955 57.78 71.469 56.367 70.74C55.314 70.191 54.414 69.516 53.658 68.814C52.524 67.761 51.714 66.654 51.174 65.799C51.012 65.538 50.868 65.295 50.751 65.097C49.329 65.16 48.141 65.187 47.151 65.187C45.09 65.187 43.857 65.079 43.092 64.944C43.002 64.926 42.912 64.917 42.84 64.899C41.166 66.6 39.114 68.292 36.9 69.624C35.667 70.362 34.389 70.983 33.075 71.433C31.77 71.883 30.438 72.153 29.106 72.153C27.873 72.153 26.64 71.919 25.488 71.361C24.858 71.064 24.309 70.65 23.841 70.164C23.022 69.318 22.428 68.274 21.978 67.149C21.303 65.466 20.934 63.576 20.718 61.803C20.502 60.021 20.457 58.356 20.457 57.114C20.457 57.087 20.457 57.06 20.457 57.042C20.43 57.042 20.403 57.051 20.376 57.06C19.854 57.15 19.287 57.195 18.684 57.195C17.343 57.195 15.84 56.979 14.31 56.538C12.789 56.088 11.259 55.404 9.91799 54.432C9.20699 53.91 8.64 53.415 8.208 52.884C7.992 52.614 7.81199 52.335 7.66799 52.029C7.53299 51.714 7.44299 51.372 7.44299 50.994C7.44299 50.634 7.53299 50.256 7.70399 49.941C7.84799 49.662 8.037 49.428 8.253 49.239C8.289 49.212 8.325 49.185 8.352 49.158C7.839 49.068 7.32599 48.951 6.83099 48.825C6.04799 48.618 5.292 48.357 4.572 48.033C3.501 47.538 2.52 46.89 1.737 46.017C1.35 45.585 1.008 45.09 0.746998 44.541C0.476998 43.992 0.287994 43.398 0.179994 42.759C0.125994 42.471 0.107999 42.183 0.107999 41.895C0.107999 41.4 0.179995 40.905 0.314995 40.437L0.296998 40.446ZM78.282 46.107C79.083 46.107 80.082 46.071 81.126 45.936C81.909 45.837 82.71 45.684 83.466 45.459C84.033 45.297 84.573 45.09 85.05 44.847C85.41 44.667 85.734 44.46 86.022 44.235C86.454 43.893 86.787 43.515 87.03 43.065C87.273 42.624 87.435 42.111 87.471 41.454C87.471 41.364 87.471 41.274 87.471 41.184C87.471 40.545 87.336 39.906 87.075 39.276C86.625 38.169 85.788 37.053 84.744 36.036C83.187 34.506 81.198 33.21 79.605 32.319C79.353 32.175 79.119 32.049 78.894 31.932C79.083 33.696 79.182 35.532 79.182 37.431C79.182 40.662 78.741 43.56 78.075 46.107C78.138 46.107 78.201 46.107 78.264 46.107H78.282ZM19.134 11.556C16.92 13.104 14.904 14.895 13.419 16.767C12.339 18.135 11.439 19.593 10.818 20.997C10.197 22.401 9.873 23.751 9.873 24.867C9.873 25.488 9.972 26.037 10.161 26.514C10.305 26.865 10.494 27.18 10.746 27.468C11.124 27.9 11.655 28.278 12.429 28.575C12.96 28.782 13.617 28.944 14.382 29.034C15.228 24.516 16.668 20.511 18.558 17.028C20.538 13.392 23.022 10.332 25.848 7.848C23.652 8.757 21.294 10.035 19.134 11.547V11.556ZM9.999 51.093C10.062 51.21 10.215 51.399 10.449 51.624C10.683 51.849 10.998 52.119 11.394 52.407C12.447 53.172 13.725 53.757 15.012 54.135C16.299 54.513 17.604 54.693 18.675 54.693C19.008 54.693 19.314 54.675 19.593 54.648C19.359 54.342 19.134 54.018 18.936 53.703C18.135 52.443 17.604 51.174 17.262 50.202C17.181 49.968 17.109 49.752 17.046 49.554C16.731 49.572 16.398 49.581 16.056 49.59C14.904 49.725 13.896 49.869 13.05 50.031C12.402 50.157 11.844 50.283 11.385 50.427C11.043 50.526 10.755 50.634 10.521 50.733C10.35 50.805 10.215 50.886 10.116 50.949C10.053 50.994 10.008 51.021 9.972 51.057C9.972 51.066 9.981 51.084 9.99 51.093H9.999ZM2.637 42.336C2.718 42.822 2.87099 43.245 3.07799 43.623C3.25799 43.956 3.492 44.253 3.762 44.523C4.248 45.009 4.878 45.423 5.652 45.765C6.795 46.287 8.226 46.629 9.738 46.836C11.25 47.043 12.834 47.106 14.319 47.106C14.967 47.106 15.588 47.097 16.182 47.07C16.218 47.07 20.52 46.602 22.518 45.63C22.518 45.63 21.546 46.656 18.963 47.448C19.08 47.592 19.17 47.772 19.215 47.97C19.215 47.97 19.458 49.041 20.016 50.337C20.295 50.985 20.646 51.705 21.078 52.38C21.51 53.055 22.023 53.694 22.599 54.207C22.599 54.207 22.599 54.216 22.617 54.225C22.617 54.225 22.626 54.234 22.635 54.243C22.653 54.261 22.662 54.279 22.68 54.288C22.689 54.297 22.698 54.306 22.707 54.324C22.797 54.432 22.869 54.549 22.923 54.675C22.941 54.711 22.95 54.756 22.968 54.792C22.968 54.792 22.968 54.81 22.968 54.819C22.977 54.855 22.986 54.891 22.995 54.918C22.995 54.927 22.995 54.945 22.995 54.954C22.995 54.99 22.995 55.017 23.004 55.053C23.004 55.071 23.004 55.08 23.004 55.098C23.004 55.134 23.004 55.17 23.004 55.206V55.224C23.004 55.224 22.959 55.989 22.959 57.114C22.959 58.005 22.986 59.13 23.085 60.345C23.157 61.254 23.274 62.217 23.445 63.153C23.706 64.557 24.093 65.907 24.624 66.969C24.894 67.5 25.191 67.95 25.515 68.31C25.839 68.67 26.181 68.931 26.559 69.111C27.333 69.48 28.179 69.651 29.097 69.651C30.078 69.651 31.149 69.444 32.256 69.066C33.912 68.499 35.631 67.545 37.233 66.402C38.835 65.259 40.32 63.927 41.526 62.631C41.904 62.226 42.507 62.118 42.993 62.361C43.038 62.379 43.29 62.451 43.884 62.523C44.523 62.604 45.558 62.676 47.142 62.676C47.97 62.676 48.951 62.658 50.112 62.613C50.184 62.613 55.971 62.109 59.841 60.723C59.841 60.723 58.383 62.667 52.65 63.297C52.65 63.306 52.839 63.72 53.199 64.314C53.748 65.214 54.711 66.528 56.07 67.581C56.754 68.112 57.528 68.571 58.41 68.904C59.292 69.237 60.282 69.444 61.398 69.444C61.488 69.444 61.569 69.444 61.659 69.444C62.352 69.426 62.946 69.282 63.495 69.039C63.972 68.832 64.413 68.544 64.827 68.193C65.547 67.572 66.168 66.744 66.69 65.799C67.473 64.386 68.013 62.73 68.364 61.29C68.715 59.85 68.868 58.626 68.922 58.077C68.949 57.771 69.084 57.492 69.309 57.285C69.309 57.285 71.19 55.467 73.026 52.11C73.944 50.427 74.862 48.348 75.546 45.891C76.23 43.443 76.689 40.617 76.689 37.422C76.689 31.779 75.789 26.802 74.223 22.5C71.865 16.056 68.004 11.133 63.342 7.785C58.671 4.428 53.19 2.646 47.565 2.511C47.331 2.511 47.106 2.511 46.872 2.511C40.014 2.511 33.237 4.833 27.792 9.486C25.065 11.817 22.671 14.724 20.763 18.234C18.855 21.744 17.424 25.857 16.659 30.591C16.659 30.591 16.659 30.609 16.659 30.618C16.659 30.654 16.641 30.699 16.632 30.735C16.632 30.744 16.632 30.762 16.623 30.771C16.614 30.807 16.596 30.843 16.578 30.888C16.578 30.897 16.578 30.906 16.569 30.915C16.551 30.96 16.524 31.005 16.497 31.041C16.497 31.05 16.488 31.059 16.479 31.068C16.461 31.095 16.434 31.131 16.416 31.158C16.407 31.176 16.398 31.185 16.38 31.194C16.38 31.194 16.371 31.203 16.362 31.212C17.415 31.248 18.189 31.689 18.189 31.689C16.695 31.311 14.985 31.923 14.967 31.932C14.625 32.085 14.193 32.274 13.707 32.499C12.735 32.949 11.529 33.543 10.269 34.245C9.324 34.776 8.352 35.361 7.425 35.991C6.039 36.936 4.779 37.989 3.915 39.024C3.483 39.546 3.141 40.059 2.925 40.536C2.709 41.022 2.601 41.463 2.601 41.895C2.601 42.039 2.61 42.183 2.637 42.327V42.336Z" fill="#484D67" style="fill:#484D67;fill:color(display-p3 0.2824 0.3020 0.4039);fill-opacity:1;"/>
<path d="M56.898 41.94C51.363 43.308 48.015 42.381 43.29 41.94C40.995 41.724 37.296 43.092 37.089 46.296C36.873 49.689 39.645 54.18 46.251 54.18H54.549C59.607 54.18 63.504 50.985 63.504 46.584C63.504 42.633 59.562 41.283 56.898 41.94Z" fill="url(#paint2_linear_80_2)" style=""/>
</g>
<defs>
<linearGradient id="paint0_linear_80_2" x1="15.075" y1="18.495" x2="16.515" y2="22.059" gradientUnits="userSpaceOnUse">
<stop offset="0.52" stop-color="#4494A4" style="stop-color:#4494A4;stop-color:color(display-p3 0.2667 0.5804 0.6431);stop-opacity:1;"/>
<stop offset="0.67" stop-color="#3787A0" style="stop-color:#3787A0;stop-color:color(display-p3 0.2157 0.5294 0.6275);stop-opacity:1;"/>
</linearGradient>
<linearGradient id="paint1_linear_80_2" x1="39.699" y1="3.31197" x2="39.699" y2="57.519" gradientUnits="userSpaceOnUse">
<stop stop-color="white" style="stop-color:white;stop-opacity:1;"/>
<stop offset="0.16" stop-color="#F5ECEE" style="stop-color:#F5ECEE;stop-color:color(display-p3 0.9608 0.9255 0.9333);stop-opacity:1;"/>
<stop offset="0.61" stop-color="#E7F0F7" style="stop-color:#E7F0F7;stop-color:color(display-p3 0.9059 0.9412 0.9686);stop-opacity:1;"/>
<stop offset="1" stop-color="#CFE2F3" style="stop-color:#CFE2F3;stop-color:color(display-p3 0.8118 0.8863 0.9529);stop-opacity:1;"/>
</linearGradient>
<linearGradient id="paint2_linear_80_2" x1="50.292" y1="41.787" x2="50.292" y2="54.117" gradientUnits="userSpaceOnUse">
<stop stop-color="#87CFC7" style="stop-color:#87CFC7;stop-color:color(display-p3 0.5294 0.8118 0.7804);stop-opacity:1;"/>
<stop offset="1" stop-color="#5DBDC4" style="stop-color:#5DBDC4;stop-color:color(display-p3 0.3647 0.7412 0.7686);stop-opacity:1;"/>
</linearGradient>
<clipPath id="clip0_80_2">
<rect width="90" height="76" fill="white" style="fill:white;fill-opacity:1;" transform="matrix(-1 0 0 1 90 0)"/>
</clipPath>
</defs>
</svg>
