<?xml version="1.0" standalone="no"?>
<!DOCTYPE svg PUBLIC "-//W3C//DTD SVG 20010904//EN" "http://www.w3.org/TR/2001/REC-SVG-20010904/DTD/svg10.dtd">
<!-- Created using Krita: https://krita.org -->
<svg xmlns="http://www.w3.org/2000/svg" 
    xmlns:xlink="http://www.w3.org/1999/xlink"
    xmlns:krita="http://krita.org/namespaces/svg/krita"
    xmlns:sodipodi="http://sodipodi.sourceforge.net/DTD/sodipodi-0.dtd"
    width="192pt"
    height="120pt"
    viewBox="0 0 192 120">
<defs/>
<circle id="shape0" transform="translate(58.3200000000001, 15.1200000000001)" r="39.6" cx="39.6" cy="39.6" fill="#5158bc" fill-rule="evenodd" stroke="#5158bc" stroke-width="9.6" stroke-linecap="square" stroke-linejoin="bevel"/><ellipse id="shape01" transform="matrix(0.927992775739111 0.0974168466824267 -0.0974168466824267 0.927992775739111 35.352273446629 46.1730879494351)" rx="67.536983595688" ry="14.9399994014704" cx="67.536983595688" cy="14.9399994014704" fill="none" stroke="#e29134" stroke-width="5.52" stroke-linecap="square" stroke-linejoin="bevel"/><path id="shape1" transform="matrix(0.933091736528556 -0.000667130918856292 0.000667130918856292 0.933091736528556 37.2593312096958 52.5270257716082)" fill="none" stroke="#e29134" stroke-width="3.84" stroke-linecap="square" stroke-linejoin="bevel" d="M9.22023 18.689C11.9821 18.689 4.38535 15.6925 2.43241 13.6015C-7.16482 3.32537 14.4027 0 19.305 0" sodipodi:nodetypes="ccc"/><path id="shape011" transform="matrix(-0.913420981518859 -0.190585267958139 -0.190585267958139 0.913420981518859 157.646733774132 65.1193348627612)" fill="none" stroke="#e29134" stroke-width="3.84" stroke-linecap="square" stroke-linejoin="bevel" d="M9.22023 18.689C11.9821 18.689 4.38535 15.6925 2.43241 13.6015C-7.16482 3.32537 14.4027 0 19.305 0" sodipodi:nodetypes="ccc"/><path id="shape02" transform="translate(104.288115685312, 69.5751153340951)" fill="#cccccc" fill-rule="evenodd" stroke="#ffffff" stroke-width="1.2864" stroke-linecap="square" stroke-linejoin="bevel" d="M15.8681 0L16.38 30.15L0 26.19Z" sodipodi:nodetypes="cccc"/><path id="shape03" transform="translate(105.299998658661, 69.7499982002461)" fill="#cccccc" fill-rule="evenodd" stroke="#cccccc" stroke-width="1.2864" stroke-linecap="square" stroke-linejoin="bevel" d="M15.8681 0L16.38 30.15L0 26.19Z" sodipodi:nodetypes="cccc"/><rect id="shape04" transform="matrix(0.98824005594619 0.152910404562514 -0.152910404562514 0.98824005594619 120.82302177982 66.2234711067781)" fill="none" stroke="#a87f55" stroke-width="1.9488" stroke-linecap="square" stroke-linejoin="bevel" width="26.2899025839469" height="37.4162869324516"/><rect id="shape012" transform="matrix(0.98824005594619 0.152910404562514 -0.152910404562514 0.98824005594619 120.10918289803 65.5465520659691)" fill="none" stroke="#a87f55" stroke-width="1.9488" stroke-linecap="square" stroke-linejoin="bevel" width="26.2899025839469" height="37.4162869324516"/><rect id="shape11" transform="matrix(0.987352474878899 0.15854050066312 -0.15854050066312 0.987352474878899 121.785177804362 67.5210545242461)" fill="#976e44" fill-rule="evenodd" stroke="#976e44" stroke-width="1.8912" stroke-linecap="square" stroke-linejoin="bevel" width="26.1878264581117" height="36.3142567342178"/><ellipse id="shape05" transform="matrix(1.23744829569281 0.129902208347392 -0.129902208347392 1.23744829569281 14.532146685147 43.6686284724241)" rx="67.536983595688" ry="14.9399994014704" cx="67.536983595688" cy="14.9399994014704" fill="none" stroke="#e29134" stroke-width="5.52" stroke-linecap="square" stroke-linejoin="bevel"/><path id="shape12" transform="matrix(1.24424759467839 -0.000889597462528939 0.000889597462528939 1.24424759467839 17.0751464157389 52.1413986647604)" fill="none" stroke="#e29134" stroke-width="3.84" stroke-linecap="square" stroke-linejoin="bevel" d="M9.22023 18.689C11.9821 18.689 4.38535 15.6925 2.43241 13.6015C-7.16482 3.32537 14.4027 0 19.305 0" sodipodi:nodetypes="ccc"/><path id="shape013" transform="matrix(-1.21801728028574 -0.254139279081261 -0.254139279081261 1.21801728028574 177.607846691981 68.9328347955799)" fill="none" stroke="#e29134" stroke-width="3.84" stroke-linecap="square" stroke-linejoin="bevel" d="M9.22023 18.689C11.9821 18.689 4.38535 15.6925 2.43241 13.6015C-7.16482 3.32537 14.4027 0 19.305 0" sodipodi:nodetypes="ccc"/><path id="shape06" transform="translate(58.3200000000001, 15.1200000000001)" fill="#5158bc" fill-rule="evenodd" stroke="#5158bc" stroke-width="9.6" stroke-linecap="square" stroke-linejoin="bevel" d="M79.2 39.6L79.1867 38.5617L79.1468 37.5301L79.0809 36.5053L78.9891 35.4878L78.8718 34.4778L78.7293 33.4757L78.562 32.4818L78.3702 31.4965L78.1541 30.5201L77.9142 29.5528L77.6508 28.5951L77.3642 27.6472L77.0546 26.7095L76.7225 25.7823L76.3682 24.8659L75.9919 23.9606L75.5941 23.0669L75.175 22.1849L74.735 21.3151L74.2744 20.4577L73.7934 19.6131L73.2926 18.7816L72.7721 17.9636L72.2323 17.1593L71.6735 16.3691L71.0961 15.5933L70.5003 14.8322L69.8866 14.0862L69.2552 13.3556L68.6064 12.6407L67.9406 11.9419L67.2581 11.2594L66.5593 10.5936L65.8444 9.94484L65.1138 9.31342L64.3678 8.69968L63.6067 8.10393L62.8309 7.5265L62.0407 6.96772L61.2364 6.42793L60.4184 5.90743L59.5869 5.40656L58.7423 4.92565L57.8849 4.46502L57.0151 4.02499L56.1331 3.6059L55.2394 3.20806L54.3341 2.83181L53.4177 2.47748L52.4905 2.14538L51.5528 1.83584L50.6049 1.54919L49.6472 1.28576L48.6799 1.04586L47.7035 0.82984L46.7182 0.638009L45.7243 0.470698L44.7222 0.328232L43.7122 0.210938L42.6947 0.119142L41.6699 0.0531693L40.6383 0.0133467L39.6 0L38.5617 0.0133467L37.5301 0.0531693L36.5053 0.119142L35.4878 0.210938L34.4778 0.328232L33.4757 0.470698L32.4818 0.638009L31.4965 0.82984L30.5201 1.04586L29.5528 1.28576L28.5951 1.54919L27.6472 1.83584L26.7095 2.14538L25.7823 2.47748L24.8659 2.83181L23.9606 3.20806L23.0669 3.6059L22.1849 4.02499L21.3151 4.46502L20.4577 4.92565L19.6131 5.40656L18.7816 5.90743L17.9636 6.42793L17.1593 6.96772L16.3691 7.5265L15.5933 8.10393L14.8322 8.69968L14.0862 9.31342L13.3556 9.94484L12.6407 10.5936L11.9419 11.2594L11.2594 11.9419L10.5936 12.6407L9.94484 13.3556L9.31342 14.0862L8.69968 14.8322L8.10393 15.5933L7.5265 16.3691L6.96772 17.1593L6.42793 17.9636L5.90743 18.7816L5.40656 19.6131L4.92565 20.4577L4.46502 21.3151L4.02499 22.1849L3.6059 23.0669L3.20806 23.9606L2.83181 24.8659L2.47748 25.7823L2.14538 26.7095L1.83584 27.6472L1.54919 28.5951L1.28576 29.5528L1.04586 30.5201L0.82984 31.4965L0.638009 32.4818L0.470698 33.4757L0.328232 34.4778L0.210938 35.4878L0.119142 36.5053L0.0531693 37.5301L0.0133467 38.5617L0 39.6L0.0133467 40.6383L0.0531693 41.6699L0.119142 42.6947L0.210938 43.7122L0.328232 44.7222L0.470698 45.7243L0.638009 46.7182L0.82984 47.7035L1.04586 48.6799L1.07589 48.801L65.9295 43.6084L73.0442 44.1278L77.0658 46.2849L77.2392 46.9472L78.1541 48.6799L78.3702 47.7035L78.562 46.7182L78.7293 45.7243L78.8718 44.7222L78.9891 43.7122L79.0809 42.6947L79.1468 41.6699L79.1867 40.6383L79.2 39.6" sodipodi:nodetypes="ccccccccccccccccccccccccccccccccccccccccccccccccccccccccccccccccccccccccccccccccccccccccccccccccccccccccccccccccccccccccccccccccccccccccccccccccccccccc"/><path id="shape07" transform="matrix(0.986763840647088 -0.162163876345547 0.162163876345547 0.986763840647088 76.8133223140809 45.7888918533356)" fill="none" stroke="#2e3381" stroke-width="3.36" stroke-linecap="round" stroke-linejoin="bevel" d="M0 5.65622C6.00174 -1.00809 23.4067 -4.04703 23.4067 9.53544" sodipodi:nodetypes="cc"/><path id="shape014" transform="matrix(-0.879926162370092 -0.47511045955299 -0.47511045955299 0.879926162370092 133.706296641536 53.1641965359007)" fill="none" stroke="#2e3381" stroke-width="3.36" stroke-linecap="round" stroke-linejoin="bevel" d="M0 5.51451C4.29839 -0.982839 16.7636 -3.94564 16.7636 9.29654" sodipodi:nodetypes="cc"/><ellipse id="shape13" transform="matrix(-0.594559060232004 -0.638557075084045 0.638557075084045 -0.594559060232004 72.065023345732 62.7002831499381)" rx="4.05592807113639" ry="2.9270439772563" cx="4.05592807113639" cy="2.9270439772563" fill="#757ccd" fill-rule="evenodd" stroke="#757ccd" stroke-width="1.8912" stroke-linecap="square" stroke-linejoin="bevel"/><ellipse id="shape2" transform="matrix(0.870447195762944 0.0598104809567118 -0.0598104809567118 0.870447195762944 78.866785090964 58.8275132853421)" rx="2.13000890444017" ry="2.13000890444016" cx="2.13000890444017" cy="2.13000890444016" fill="#757ccd" fill-rule="evenodd" stroke="#757ccd" stroke-width="1.8912" stroke-linecap="square" stroke-linejoin="bevel"/><ellipse id="shape021" transform="matrix(0.870447195762944 0.0598104809567118 -0.0598104809567118 0.870447195762944 72.930895155718 65.2286033620391)" rx="2.13000890444017" ry="2.13000890444016" cx="2.13000890444017" cy="2.13000890444016" fill="#757ccd" stroke="#757ccd" stroke-width="1.8912" stroke-linecap="square" stroke-linejoin="bevel"/><ellipse id="shape031" transform="matrix(0.616342073082984 -0.454230321304634 -0.390765533377405 -0.620765164600796 132.112522655295 69.6580843430801)" rx="4.05592807113639" ry="2.9270439772563" cx="4.05592807113639" cy="2.9270439772563" fill="#757ccd" fill-rule="evenodd" stroke="#757ccd" stroke-width="1.8912" stroke-linecap="square" stroke-linejoin="bevel"/><ellipse id="shape111" transform="matrix(-0.716999411648134 -0.0926601946463001 -0.13596726379604 0.763602424500125 127.429071928947 65.1761203438951)" rx="2.13000890444017" ry="2.13000890444016" cx="2.13000890444017" cy="2.13000890444016" fill="#757ccd" fill-rule="evenodd" stroke="#757ccd" stroke-width="1.8912" stroke-linecap="square" stroke-linejoin="bevel"/><ellipse id="shape0111" transform="matrix(-0.716999411648134 -0.0926601946463001 -0.13596726379604 0.763602424500125 130.876387113232 71.7035437481291)" rx="2.13000890444017" ry="2.13000890444016" cx="2.13000890444017" cy="2.13000890444016" fill="#4047ac" stroke="#4047ac" stroke-width="1.8912" stroke-linecap="square" stroke-linejoin="bevel"/><path id="shape3" transform="matrix(0.999994717214331 0.00325046818623378 -0.00325046818623378 0.999994717214331 102.680618780576 60.5681881157021)" fill="none" stroke="#2e3381" stroke-width="2.4" stroke-linecap="round" stroke-linejoin="bevel" d="M0 0C1.60735 2.9348 6.48892 3.4382 8.82001 1.32357" sodipodi:nodetypes="cc"/><path id="shape4" transform="translate(93.7200029358681, 22.1977839345614)" fill="none" stroke="#2e3381" stroke-width="2.4" stroke-linecap="round" stroke-linejoin="bevel" d="M11.1 2.07559C11.1 -3.72112 1.03254 4.26104 0 6.19721" sodipodi:nodetypes="cc"/><path id="shape5" transform="matrix(0.990617117145049 -0.136666481696263 0.136666481696263 0.990617117145049 115.393281346245 24.0752960245009)" fill="none" stroke="#2e3381" stroke-width="2.4" stroke-linecap="round" stroke-linejoin="bevel" d="M0 2.00584C4.26761 -4.01846 4.92 5.29223 4.92 6.91832" sodipodi:nodetypes="cc"/><path id="shape08" transform="translate(117.384000945674, 65.5859998472851)" fill="none" stroke="#a87f55" stroke-width="1.9488" stroke-linecap="square" stroke-linejoin="bevel" d="M2.732 0L28.713 4.02L26.266 19.833L0 17.661L2.732 0" sodipodi:nodetypes="ccccc"/><path id="shape14" transform="matrix(0.999985847341942 0.00532025524008711 -0.00532025524008711 0.999985847341942 119.132726442694 66.7807467217531)" fill="#976e44" fill-rule="evenodd" stroke="#976e44" stroke-width="1.8912" stroke-linecap="square" stroke-linejoin="bevel" d="M2.512 0L28.048 4.562L25.851 19.785L0 17.406L2.512 0" sodipodi:nodetypes="ccccc"/><rect id="shape09" transform="matrix(0.928760571828947 0.370680185896118 -0.370680185896118 0.928760571828947 94.638408422957 40.0524672654061)" fill="#ffffff" fill-rule="evenodd" stroke="#ffffff" stroke-width="1.2864" stroke-linecap="square" stroke-linejoin="bevel" width="3.05715495318835" height="19.8600163973051"/><path id="shape15" transform="matrix(0.989987624329044 -0.141154184051823 0.141154184051823 0.989987624329044 125.393337303592 45.2962851854011)" fill="#ffffff" fill-rule="evenodd" stroke="#ffffff" stroke-width="1.2864" stroke-linecap="square" stroke-linejoin="bevel" d="M0.145238 17.3854L0 17.088C3.61166 11.2384 5.1265 5.84965 8.73817 0L16.4173 4.61692L9.69273 17.6247Z" sodipodi:nodetypes="cccccc"/><path id="shape21" transform="translate(74.699988295592, 37.6649837028111)" fill="#ffffff" fill-rule="evenodd" stroke="#ffffff" stroke-width="1.2864" stroke-linecap="square" stroke-linejoin="bevel" d="M0.915 17.925L0 3.93L3.165 0L9.435 0.27Z" sodipodi:nodetypes="ccccc"/><path id="shape31" transform="translate(99.149992689486, 43.5299908425511)" fill="#ffffff" fill-rule="evenodd" stroke="#ffffff" stroke-width="1.2864" stroke-linecap="square" stroke-linejoin="bevel" d="M6.59906 0L0 17.925L8.29236 8.84261L11.1204 9.82069L11.4523 10.6406L15.045 0.888501Z" sodipodi:nodetypes="ccccccc"/><path id="shape010" transform="matrix(0.999924533758278 0.0122852264241846 -0.0122852264241846 0.999924533758278 73.392002954246 35.8540108317421)" fill="none" stroke="#ffffff" stroke-width="1.2864" stroke-linecap="square" stroke-linejoin="bevel" d="M1.6887 20.3521L0 4.37263L3.05739 0L23.633 4.75295L40.3398 7.56952L65.8395 8.09762L67.2464 8.09762L69.3835 12.0336L64.4696 25.3858L41.027 26.4177L37.6579 17.7355L34.8075 16.7894L26.7903 25.7645Z" sodipodi:nodetypes="cccccccccccccc"/><path id="shape16" transform="matrix(0.999963633206231 -0.00852832134679835 0.00852832134679835 0.999963633206231 73.557533243399 34.4785707813221)" fill="none" stroke="#383838" stroke-width="1.2864" stroke-linecap="round" stroke-linejoin="bevel" d="M0 0C31.4328 8.16993 39.582 9.37701 69.6375 8.6325" sodipodi:nodetypes="cc"/><path id="shape015" transform="matrix(0.999963633206231 -0.00852832134679835 0.00852832134679835 0.999963633206231 72.165275037066 36.5056820456801)" fill="none" stroke="#383838" stroke-width="1.2864" stroke-linecap="round" stroke-linejoin="bevel" d="M0 0C31.4328 8.16993 41.967 9.827 72.0225 9.0825" sodipodi:nodetypes="cc"/><rect id="shape22" transform="matrix(0.866090167786177 0.499887808677222 -0.499887808677222 0.866090167786177 73.364119529454 34.2618142884621)" fill="#383838" fill-rule="evenodd" stroke="#383838" stroke-width="1.2864" stroke-linecap="square" stroke-linejoin="bevel" width="5.51999999999998" height="7.44"/><rect id="shape022" transform="matrix(-0.913196253325883 0.40752006442821 0.40752006442821 0.913196253325883 143.425241504095 42.5619620390461)" fill="#383838" stroke="#383838" stroke-width="1.2864" stroke-linecap="square" stroke-linejoin="bevel" width="5.00899723330906" height="7.2395557841673"/><path id="shape32" transform="matrix(0.999963633206231 -0.00852832134679835 0.00852832134679835 0.999963633206231 105.670157048807 43.7375327847181)" fill="none" stroke="#383838" stroke-width="1.2864" stroke-linecap="square" stroke-linejoin="bevel" d="M0 0C1.97346 1.8635 5.55741 3.00606 8.445 1.275" sodipodi:nodetypes="cc"/><path id="shape41" transform="matrix(0.999963633206231 -0.00852832134679835 0.00852832134679835 0.999963633206231 78.31513671062 36.5230633114691)" fill="none" stroke="#383838" stroke-width="2.0064" stroke-linecap="square" stroke-linejoin="bevel" d="M0 0C3.4372 2.17117 11.8833 3.13144 16.335 4.32C30.3012 7.99339 49.4854 8.07132 62.865 7.56" sodipodi:nodetypes="ccc"/><path id="shape51" transform="matrix(0.999963633206231 -0.00852832134679835 0.00852832134679835 0.999963633206231 107.764499672499 43.9446790742011)" fill="none" stroke="#383838" stroke-width="2.0064" stroke-linecap="square" stroke-linejoin="bevel" d="M0 0C0.858646 0 4.57221 1.45309 5.22 0.1575" sodipodi:nodetypes="cc"/><path id="shape016" transform="matrix(0.995889860584774 0.090572543215037 -0.090572543215037 0.995889860584774 143.993523743654 64.681707767258)" fill="none" stroke="#383838" stroke-width="1.2864" stroke-linecap="round" stroke-linejoin="bevel" d="M0 3.74879C0 -2.18744 4.89398 -0.26462 3.12073 3.92879" sodipodi:nodetypes="cc"/><path id="shape017" transform="matrix(0.995889860584774 0.0905725432150376 -0.0905725432150376 0.995889860584774 140.678056854549 64.567122958138)" fill="none" stroke="#383838" stroke-width="1.2864" stroke-linecap="round" stroke-linejoin="bevel" d="M0.123267 3.38425C-0.896424 -1.79397 4.79059 -0.460677 3.244 3.56425" sodipodi:nodetypes="cc"/><path id="shape023" transform="matrix(0.995889860584774 0.0905725432150376 -0.0905725432150376 0.995889860584774 137.675024172181 63.9699278266654)" fill="none" stroke="#383838" stroke-width="1.2864" stroke-linecap="round" stroke-linejoin="bevel" d="M1.05415e-05 3.47716C-0.00828936 -2.0433 4.8879 -0.231371 3.12074 3.65716" sodipodi:nodetypes="cc"/><path id="shape032" transform="matrix(0.995889860584774 0.0905725432150376 -0.0905725432150376 0.995889860584774 134.602746791001 63.168123434265)" fill="none" stroke="#383838" stroke-width="1.2864" stroke-linecap="round" stroke-linejoin="bevel" d="M0 3.74879C0 -2.18744 4.89398 -0.26462 3.12073 3.92879" sodipodi:nodetypes="cc"/><path id="shape041" transform="matrix(0.995889860584774 0.0905725432150376 -0.0905725432150376 0.995889860584774 131.505481762657 62.6068340559139)" fill="none" stroke="#383838" stroke-width="1.2864" stroke-linecap="round" stroke-linejoin="bevel" d="M0 3.74879C0 -2.18744 4.89398 -0.26462 3.12073 3.92879" sodipodi:nodetypes="cc"/><path id="shape051" transform="matrix(0.995889860584774 0.0905725432150376 -0.0905725432150376 0.995889860584774 128.340996148241 62.4940992042953)" fill="none" stroke="#383838" stroke-width="1.2864" stroke-linecap="round" stroke-linejoin="bevel" d="M0.00782735 3.55427C-0.22199 -2.10616 4.69738 -0.213811 3.12856 3.73427" sodipodi:nodetypes="cc"/><path id="shape061" transform="matrix(0.995889860584774 0.0905725432150376 -0.0905725432150376 0.995889860584774 125.182589348897 61.8374423447306)" fill="none" stroke="#383838" stroke-width="1.2864" stroke-linecap="round" stroke-linejoin="bevel" d="M0.00147558 3.71189C-0.096912 -2.18129 4.76314 -0.243628 3.12221 3.89189" sodipodi:nodetypes="cc"/><path id="shape071" transform="matrix(0.995889860584774 0.0905725432150376 -0.0905725432150376 0.995889860584774 122.005251545771 61.3780327964133)" fill="none" stroke="#383838" stroke-width="1.2864" stroke-linecap="round" stroke-linejoin="bevel" d="M0.0431911 3.6891C-0.520832 -2.14371 4.65232 -0.272079 3.16392 3.8691" sodipodi:nodetypes="cc"/><ellipse id="shape018" transform="matrix(0.978300059218815 0.190010102238286 -0.204856217293529 0.827330674296779 98.705499002924 11.0435232670041)" rx="11.9294304367574" ry="6.21207207800997" cx="11.9294304367574" cy="6.21207207800997" fill="none" stroke="#757ccd" stroke-width="1.9416" stroke-linecap="square" stroke-linejoin="bevel"/><ellipse id="shape019" transform="matrix(0.978300059218815 0.190010102238286 -0.204856217293529 0.827330674296779 104.880838358244 14.2447747346791)" rx="5.65768184781442" ry="2.79055189200391" cx="5.65768184781442" cy="2.79055189200391" fill="none" stroke="#757ccd" stroke-width="1.9416" stroke-linecap="square" stroke-linejoin="bevel"/><path id="shape42" transform="translate(93.7200029358681, 22.1977844458385)" fill="none" stroke="#2e3381" stroke-width="2.4" stroke-linecap="round" stroke-linejoin="bevel" d="M11.1 2.07559C11.1 -3.72112 1.03254 4.26104 0 6.19721" sodipodi:nodetypes="cc"/><path id="shape52" transform="matrix(0.990617117145049 -0.136666481696263 0.136666481696263 0.990617117145049 115.393281199625 24.0752949617369)" fill="none" stroke="#2e3381" stroke-width="2.4" stroke-linecap="round" stroke-linejoin="bevel" d="M0 2.00584C4.26761 -4.01846 4.92 5.29223 4.92 6.91832" sodipodi:nodetypes="cc"/>
</svg>
