<?xml version="1.0" standalone="no"?>
<!DOCTYPE svg PUBLIC "-//W3C//DTD SVG 20010904//EN" "http://www.w3.org/TR/2001/REC-SVG-20010904/DTD/svg10.dtd">
<!-- Created using Krita: https://krita.org -->
<svg xmlns="http://www.w3.org/2000/svg" 
    xmlns:xlink="http://www.w3.org/1999/xlink"
    xmlns:krita="http://krita.org/namespaces/svg/krita"
    xmlns:sodipodi="http://sodipodi.sourceforge.net/DTD/sodipodi-0.dtd"
    width="120pt"
    height="120pt"
    viewBox="0 0 120 120">
<defs/>
<circle id="shape0" transform="translate(20.5800007921521, 20.5800007921521)" r="39.4199992078479" cx="39.4199992078479" cy="39.4199992078479" fill="#5158bc" fill-rule="evenodd" stroke="#5158bc" stroke-width="8.7456" stroke-linecap="square" stroke-linejoin="bevel"/><path id="shape3" transform="matrix(0.938688001531968 -0.344767799801432 0.344767799801432 0.938688001531968 55.3169601608518 51.0200139432586)" fill="none" stroke="#2e3381" stroke-width="2.4" stroke-linecap="round" stroke-linejoin="bevel" d="M0 0C2.0586 2.9348 8.53409 3.61603 11.2827 1.41256" sodipodi:nodetypes="cc"/><path id="shape4" transform="translate(43.0962232758685, 16.8241125841724)" fill="none" stroke="#2e3381" stroke-width="2.4" stroke-linecap="round" stroke-linejoin="bevel" d="M11.1 2.07559C11.1 -3.72112 1.03254 4.26104 0 6.19721" sodipodi:nodetypes="cc"/><path id="shape41" transform="matrix(-1 0 0 1 76.9037752656962 16.8215798830365)" fill="none" stroke="#2e3381" stroke-width="2.4" stroke-linecap="round" stroke-linejoin="bevel" d="M11.1 2.07559C11.1 -3.72112 1.03254 4.26104 0 6.19721" sodipodi:nodetypes="cc"/><ellipse id="shape1" transform="matrix(-0.726692340925236 -0.482880788481439 0.482880788481439 -0.726692340925236 25.0497149723748 56.2432847243653)" rx="4.05592807113639" ry="2.9270439772563" cx="4.05592807113639" cy="2.9270439772563" fill="#4047ac" fill-rule="evenodd" stroke="#4047ac" stroke-width="1.8912" stroke-linecap="square" stroke-linejoin="bevel"/><ellipse id="shape2" transform="matrix(0.860511142125226 -0.144139475932818 0.144139475932818 0.860511142125226 30.7650877847992 50.8956849938292)" rx="2.13000890444017" ry="2.13000890444016" cx="2.13000890444017" cy="2.13000890444016" fill="#4047ac" fill-rule="evenodd" stroke="#4047ac" stroke-width="1.8912" stroke-linecap="square" stroke-linejoin="bevel"/><ellipse id="shape021" transform="matrix(0.860511142125226 -0.144139475932818 0.144139475932818 0.860511142125226 26.4795147047739 58.5011177145302)" rx="2.13000890444017" ry="2.13000890444016" cx="2.13000890444017" cy="2.13000890444016" fill="#4047ac" stroke="#4047ac" stroke-width="1.8912" stroke-linecap="square" stroke-linejoin="bevel"/><ellipse id="shape11" transform="matrix(0.726692340925236 -0.482880788481439 -0.482880788481439 -0.726692340925236 94.9502850276252 56.3257846240177)" rx="4.05592807113639" ry="2.9270439772563" cx="4.05592807113639" cy="2.9270439772563" fill="#4047ac" fill-rule="evenodd" stroke="#4047ac" stroke-width="1.8912" stroke-linecap="square" stroke-linejoin="bevel"/><ellipse id="shape21" transform="matrix(-0.860511142125226 -0.144139475932818 -0.144139475932818 0.860511142125226 89.2349122152009 50.9781848934815)" rx="2.13000890444017" ry="2.13000890444016" cx="2.13000890444017" cy="2.13000890444016" fill="#4047ac" fill-rule="evenodd" stroke="#4047ac" stroke-width="1.8912" stroke-linecap="square" stroke-linejoin="bevel"/><ellipse id="shape0211" transform="matrix(-0.860511142125226 -0.144139475932818 -0.144139475932818 0.860511142125226 93.5204852952263 58.5836176141825)" rx="2.13000890444017" ry="2.13000890444016" cx="2.13000890444017" cy="2.13000890444016" fill="#4047ac" stroke="#4047ac" stroke-width="1.8912" stroke-linecap="square" stroke-linejoin="bevel"/><rect id="shape5" transform="matrix(1.74252435340902 0 0 1.74252435340902 26.3559001548043 32.2022304778903)" fill="#242430" fill-rule="evenodd" stroke="#242430" stroke-width="1.7376" stroke-linecap="square" stroke-linejoin="bevel" width="15.405001625988" height="7.15500272832291"/><rect id="shape01" transform="matrix(1.74252435340902 0 0 1.74252435340902 66.800509347606 32.0399987892442)" fill="#242430" stroke="#242430" stroke-width="1.7376" stroke-linecap="square" stroke-linejoin="bevel" width="15.405001625988" height="7.15500272832291"/><path id="shape6" transform="matrix(1.74252435340902 0 0 1.74252435340902 53.0667249049486 33.474884281702)" fill="none" stroke="#242430" stroke-width="2.4" stroke-linecap="square" stroke-linejoin="bevel" d="M0 1.01494C4.48911 -1.38983 8.15652 1.28088 7.8975 0.924935" sodipodi:nodetypes="cc"/><path id="shape02" transform="translate(29.944, 32.7824977841953)" fill="#ffffff" fill-rule="evenodd" stroke="#ffffff" stroke-width="1.7376" stroke-linecap="square" stroke-linejoin="bevel" d="M11.6605 0L5.3754 11.2275L0 11.2275L6.2851 0L11.6605 0" sodipodi:nodetypes="ccccc"/><path id="shape03" transform="translate(68.3967118420236, 32.5349997401614)" fill="#ffffff" fill-rule="evenodd" stroke="#ffffff" stroke-width="1.7376" stroke-linecap="square" stroke-linejoin="bevel" d="M11.6605 0L5.3754 11.25L0 11.25L6.2851 0L11.6605 0" sodipodi:nodetypes="ccccc"/><path id="shape04" transform="translate(39.4767141937259, 32.7786120533929)" fill="#ffffff" fill-rule="evenodd" stroke="#ffffff" stroke-width="1.7376" stroke-linecap="square" stroke-linejoin="bevel" d="M11.6605 0L5.3754 11.2275L0 11.2275L6.2851 0L11.6605 0" sodipodi:nodetypes="ccccc"/>
</svg>
